<svg width="64" height="64" viewBox="0 0 64 64" fill="none" xmlns="http://www.w3.org/2000/svg">
<rect width="64" height="64" fill="white"/>
<path d="M7.81818 14H4.8608V5.27273H7.87784C8.74432 5.27273 9.48864 5.44744 10.1108 5.79688C10.7358 6.14347 11.2159 6.64205 11.5511 7.29261C11.8864 7.94318 12.054 8.72159 12.054 9.62784C12.054 10.5369 11.8849 11.3182 11.5469 11.9716C11.2116 12.625 10.7273 13.1264 10.0938 13.4759C9.46307 13.8253 8.70455 14 7.81818 14ZM6.44176 12.6321H7.74148C8.34943 12.6321 8.85653 12.5213 9.26278 12.2997C9.66903 12.0753 9.97443 11.7415 10.179 11.2983C10.3835 10.8523 10.4858 10.2955 10.4858 9.62784C10.4858 8.96023 10.3835 8.40625 10.179 7.96591C9.97443 7.52273 9.67188 7.19176 9.27131 6.97301C8.87358 6.75142 8.37926 6.64062 7.78835 6.64062H6.44176V12.6321ZM16.343 14.1278C15.7038 14.1278 15.1499 13.9872 14.6811 13.706C14.2124 13.4247 13.8487 13.0312 13.5902 12.5256C13.3345 12.0199 13.2067 11.429 13.2067 10.7528C13.2067 10.0767 13.3345 9.48437 13.5902 8.97585C13.8487 8.46733 14.2124 8.07244 14.6811 7.79119C15.1499 7.50994 15.7038 7.36932 16.343 7.36932C16.9822 7.36932 17.5362 7.50994 18.005 7.79119C18.4737 8.07244 18.8359 8.46733 19.0916 8.97585C19.3501 9.48437 19.4794 10.0767 19.4794 10.7528C19.4794 11.429 19.3501 12.0199 19.0916 12.5256C18.8359 13.0312 18.4737 13.4247 18.005 13.706C17.5362 13.9872 16.9822 14.1278 16.343 14.1278ZM16.3516 12.892C16.6982 12.892 16.9879 12.7969 17.2209 12.6065C17.4538 12.4134 17.6271 12.1548 17.7408 11.831C17.8572 11.5071 17.9155 11.1463 17.9155 10.7486C17.9155 10.348 17.8572 9.9858 17.7408 9.66193C17.6271 9.33523 17.4538 9.07528 17.2209 8.8821C16.9879 8.68892 16.6982 8.59233 16.3516 8.59233C15.9964 8.59233 15.701 8.68892 15.4652 8.8821C15.2322 9.07528 15.0575 9.33523 14.9411 9.66193C14.8274 9.9858 14.7706 10.348 14.7706 10.7486C14.7706 11.1463 14.8274 11.5071 14.9411 11.831C15.0575 12.1548 15.2322 12.4134 15.4652 12.6065C15.701 12.7969 15.9964 12.892 16.3516 12.892ZM22.3313 10.1648V14H20.7887V7.45455H22.2631V8.56676H22.3398C22.4904 8.20028 22.7305 7.90909 23.06 7.69318C23.3924 7.47727 23.8029 7.36932 24.2915 7.36932C24.7433 7.36932 25.1367 7.46591 25.4719 7.65909C25.81 7.85227 26.0714 8.1321 26.256 8.49858C26.4435 8.86506 26.5359 9.30966 26.533 9.83239V14H24.9904V10.071C24.9904 9.63352 24.8768 9.29119 24.6495 9.04403C24.4251 8.79687 24.114 8.6733 23.7163 8.6733C23.4464 8.6733 23.2063 8.73295 22.9961 8.85227C22.7887 8.96875 22.6254 9.13778 22.506 9.35938C22.3896 9.58097 22.3313 9.84943 22.3313 10.1648ZM30.9989 14.1278C30.3427 14.1278 29.7759 13.9915 29.2987 13.7188C28.8242 13.4432 28.4592 13.054 28.2035 12.5511C27.9478 12.0455 27.82 11.4503 27.82 10.7656C27.82 10.0923 27.9478 9.50142 28.2035 8.9929C28.462 8.48153 28.8228 8.08381 29.2859 7.79972C29.7489 7.51278 30.293 7.36932 30.918 7.36932C31.3214 7.36932 31.7021 7.43466 32.06 7.56534C32.4208 7.69318 32.739 7.89205 33.0146 8.16193C33.293 8.43182 33.5117 8.77557 33.6708 9.19318C33.8299 9.60795 33.9094 10.1023 33.9094 10.6761V11.1491H28.5444V10.1094H32.4308C32.4279 9.81392 32.364 9.55114 32.239 9.32102C32.114 9.08807 31.9393 8.90483 31.7148 8.77131C31.4933 8.63778 31.2347 8.57102 30.9393 8.57102C30.6239 8.57102 30.3469 8.64773 30.1083 8.80114C29.8697 8.9517 29.6836 9.15057 29.5501 9.39773C29.4194 9.64205 29.3526 9.91051 29.3498 10.2031V11.1108C29.3498 11.4915 29.4194 11.8182 29.5586 12.0909C29.6978 12.3608 29.8924 12.5682 30.1424 12.7131C30.3924 12.8551 30.685 12.9261 31.0202 12.9261C31.2447 12.9261 31.4478 12.8949 31.6296 12.8324C31.8114 12.767 31.9691 12.6719 32.1026 12.5469C32.2362 12.4219 32.337 12.267 32.4052 12.0824L33.8455 12.2443C33.7546 12.625 33.5813 12.9574 33.3256 13.2415C33.0728 13.5227 32.7489 13.7415 32.354 13.8977C31.9592 14.0511 31.5075 14.1278 30.9989 14.1278ZM30.283 6.59375L31.2376 4.64631H32.7461L31.4379 6.59375H30.283ZM35.2145 14V7.45455H36.7102V8.54545H36.7784C36.8977 8.16761 37.1023 7.87642 37.392 7.67188C37.6847 7.46449 38.0185 7.3608 38.3935 7.3608C38.4787 7.3608 38.5739 7.36506 38.679 7.37358C38.7869 7.37926 38.8764 7.3892 38.9474 7.40341V8.82244C38.8821 8.79972 38.7784 8.77983 38.6364 8.76278C38.4972 8.7429 38.3622 8.73295 38.2315 8.73295C37.9503 8.73295 37.6974 8.79403 37.473 8.91619C37.2514 9.03551 37.0767 9.2017 36.9489 9.41477C36.821 9.62784 36.7571 9.87358 36.7571 10.152V14H35.2145ZM45.3778 14.1151C44.8636 14.1151 44.4034 13.983 43.9972 13.7188C43.5909 13.4545 43.2699 13.071 43.0341 12.5682C42.7983 12.0653 42.6804 11.4545 42.6804 10.7358C42.6804 10.0085 42.7997 9.39489 43.0384 8.89489C43.2798 8.39205 43.6051 8.01278 44.0142 7.7571C44.4233 7.49858 44.8793 7.36932 45.3821 7.36932C45.7656 7.36932 46.081 7.43466 46.3281 7.56534C46.5753 7.69318 46.7713 7.84801 46.9162 8.02983C47.0611 8.20881 47.1733 8.37784 47.2528 8.53693H47.3168V5.27273H48.8636V14H47.3466V12.9688H47.2528C47.1733 13.1278 47.0582 13.2969 46.9077 13.4759C46.7571 13.652 46.5582 13.8026 46.3111 13.9276C46.0639 14.0526 45.7528 14.1151 45.3778 14.1151ZM45.8082 12.8494C46.1349 12.8494 46.4134 12.7614 46.6435 12.5852C46.8736 12.4062 47.0483 12.1577 47.1676 11.8395C47.2869 11.5213 47.3466 11.1506 47.3466 10.7273C47.3466 10.304 47.2869 9.93608 47.1676 9.62358C47.0511 9.31108 46.8778 9.06818 46.6477 8.89489C46.4205 8.72159 46.1406 8.63494 45.8082 8.63494C45.4645 8.63494 45.1776 8.72443 44.9474 8.90341C44.7173 9.08239 44.544 9.32955 44.4276 9.64489C44.3111 9.96023 44.2528 10.321 44.2528 10.7273C44.2528 11.1364 44.3111 11.5014 44.4276 11.8224C44.5469 12.1406 44.7216 12.392 44.9517 12.5767C45.1847 12.7585 45.4702 12.8494 45.8082 12.8494ZM50.5075 14V7.45455H52.0501V14H50.5075ZM51.283 6.52557C51.0387 6.52557 50.8285 6.4446 50.6523 6.28267C50.4762 6.1179 50.3881 5.92045 50.3881 5.69034C50.3881 5.45739 50.4762 5.25994 50.6523 5.09801C50.8285 4.93324 51.0387 4.85085 51.283 4.85085C51.5302 4.85085 51.7404 4.93324 51.9137 5.09801C52.0898 5.25994 52.1779 5.45739 52.1779 5.69034C52.1779 5.92045 52.0898 6.1179 51.9137 6.28267C51.7404 6.4446 51.5302 6.52557 51.283 6.52557ZM55.179 10.1648V14H53.6364V7.45455H55.1108V8.56676H55.1875C55.3381 8.20028 55.5781 7.90909 55.9077 7.69318C56.2401 7.47727 56.6506 7.36932 57.1392 7.36932C57.5909 7.36932 57.9844 7.46591 58.3196 7.65909C58.6577 7.85227 58.919 8.1321 59.1037 8.49858C59.2912 8.86506 59.3835 9.30966 59.3807 9.83239V14H57.8381V10.071C57.8381 9.63352 57.7244 9.29119 57.4972 9.04403C57.2727 8.79687 56.9616 8.6733 56.5639 8.6733C56.294 8.6733 56.054 8.73295 55.8438 8.85227C55.6364 8.96875 55.473 9.13778 55.3537 9.35938C55.2372 9.58097 55.179 9.84943 55.179 10.1648ZM9.96591 20.1847L8.55966 20.3381C8.51989 20.196 8.45028 20.0625 8.35085 19.9375C8.25426 19.8125 8.12358 19.7116 7.95881 19.6349C7.79403 19.5582 7.59233 19.5199 7.35369 19.5199C7.03267 19.5199 6.76278 19.5895 6.54403 19.7287C6.32812 19.8679 6.22159 20.0483 6.22443 20.2699C6.22159 20.4602 6.29119 20.6151 6.43324 20.7344C6.57813 20.8537 6.81676 20.9517 7.14915 21.0284L8.26562 21.267C8.88494 21.4006 9.34517 21.6122 9.64631 21.902C9.95028 22.1918 10.1037 22.571 10.1065 23.0398C10.1037 23.4517 9.98295 23.8153 9.74432 24.1307C9.50852 24.4432 9.1804 24.6875 8.75994 24.8636C8.33949 25.0398 7.85653 25.1278 7.31108 25.1278C6.50994 25.1278 5.86506 24.9602 5.37642 24.625C4.88778 24.2869 4.59659 23.8168 4.50284 23.2145L6.0071 23.0696C6.07528 23.3651 6.22017 23.5881 6.44176 23.7386C6.66335 23.8892 6.9517 23.9645 7.30682 23.9645C7.6733 23.9645 7.96733 23.8892 8.18892 23.7386C8.41335 23.5881 8.52557 23.402 8.52557 23.1804C8.52557 22.9929 8.45313 22.8381 8.30824 22.7159C8.16619 22.5937 7.9446 22.5 7.64347 22.4347L6.52699 22.2003C5.89915 22.0696 5.43466 21.8494 5.13352 21.5398C4.83239 21.2273 4.68324 20.8324 4.68608 20.3551C4.68324 19.9517 4.79261 19.6023 5.0142 19.3068C5.23864 19.0085 5.54972 18.7784 5.94744 18.6165C6.34801 18.4517 6.80966 18.3693 7.33239 18.3693C8.09943 18.3693 8.70313 18.5327 9.14347 18.8594C9.58665 19.1861 9.8608 19.6278 9.96591 20.1847ZM14.647 18.4545V19.6477H10.8842V18.4545H14.647ZM11.8132 16.8864H13.3558V23.0312C13.3558 23.2386 13.3871 23.3977 13.4496 23.5085C13.5149 23.6165 13.6001 23.6903 13.7053 23.7301C13.8104 23.7699 13.9268 23.7898 14.0547 23.7898C14.1513 23.7898 14.2393 23.7827 14.3189 23.7685C14.4013 23.7543 14.4638 23.7415 14.5064 23.7301L14.7663 24.9361C14.6839 24.9645 14.5661 24.9957 14.4126 25.0298C14.2621 25.0639 14.0774 25.0838 13.8587 25.0895C13.4723 25.1009 13.1243 25.0426 12.8146 24.9148C12.505 24.7841 12.2592 24.5824 12.0774 24.3097C11.8984 24.0369 11.8104 23.696 11.8132 23.2869V16.8864ZM18.7646 25.1278C18.1083 25.1278 17.5415 24.9915 17.0643 24.7188C16.5898 24.4432 16.2248 24.054 15.9691 23.5511C15.7134 23.0455 15.5856 22.4503 15.5856 21.7656C15.5856 21.0923 15.7134 20.5014 15.9691 19.9929C16.2276 19.4815 16.5884 19.0838 17.0515 18.7997C17.5146 18.5128 18.0586 18.3693 18.6836 18.3693C19.087 18.3693 19.4677 18.4347 19.8256 18.5653C20.1864 18.6932 20.5046 18.892 20.7802 19.1619C21.0586 19.4318 21.2773 19.7756 21.4364 20.1932C21.5955 20.608 21.6751 21.1023 21.6751 21.6761V22.1491H16.31V21.1094H20.1964C20.1935 20.8139 20.1296 20.5511 20.0046 20.321C19.8796 20.0881 19.7049 19.9048 19.4805 19.7713C19.2589 19.6378 19.0004 19.571 18.7049 19.571C18.3896 19.571 18.1126 19.6477 17.8739 19.8011C17.6353 19.9517 17.4492 20.1506 17.3157 20.3977C17.185 20.642 17.1183 20.9105 17.1154 21.2031V22.1108C17.1154 22.4915 17.185 22.8182 17.3242 23.0909C17.4634 23.3608 17.658 23.5682 17.908 23.7131C18.158 23.8551 18.4506 23.9261 18.7859 23.9261C19.0103 23.9261 19.2134 23.8949 19.3952 23.8324C19.5771 23.767 19.7347 23.6719 19.8683 23.5469C20.0018 23.4219 20.1026 23.267 20.1708 23.0824L21.6112 23.2443C21.5202 23.625 21.3469 23.9574 21.0913 24.2415C20.8384 24.5227 20.5146 24.7415 20.1197 24.8977C19.7248 25.0511 19.2731 25.1278 18.7646 25.1278ZM22.9801 25V18.4545H24.4545V19.5668H24.5312C24.6676 19.1918 24.8935 18.8991 25.2088 18.6889C25.5241 18.4759 25.9006 18.3693 26.3381 18.3693C26.7812 18.3693 27.1548 18.4773 27.4588 18.6932C27.7656 18.9062 27.9815 19.1974 28.1065 19.5668H28.1747C28.3196 19.2031 28.5639 18.9134 28.9077 18.6974C29.2543 18.4787 29.6648 18.3693 30.1392 18.3693C30.7415 18.3693 31.233 18.5597 31.6136 18.9403C31.9943 19.321 32.1847 19.8764 32.1847 20.6065V25H30.6378V20.8452C30.6378 20.4389 30.5298 20.142 30.3139 19.9545C30.098 19.7642 29.8338 19.669 29.5213 19.669C29.1491 19.669 28.858 19.7855 28.6477 20.0185C28.4403 20.2486 28.3366 20.5483 28.3366 20.9176V25H26.8239V20.7812C26.8239 20.4432 26.7216 20.1733 26.517 19.9716C26.3153 19.7699 26.0511 19.669 25.7244 19.669C25.5028 19.669 25.3011 19.7259 25.1193 19.8395C24.9375 19.9503 24.7926 20.108 24.6847 20.3125C24.5767 20.5142 24.5227 20.75 24.5227 21.0199V25H22.9801ZM33.7496 25V18.4545H35.2241V19.5668H35.3008C35.4371 19.1918 35.663 18.8991 35.9783 18.6889C36.2937 18.4759 36.6701 18.3693 37.1076 18.3693C37.5508 18.3693 37.9244 18.4773 38.2283 18.6932C38.5352 18.9062 38.7511 19.1974 38.8761 19.5668H38.9442C39.0891 19.2031 39.3335 18.9134 39.6772 18.6974C40.0238 18.4787 40.4343 18.3693 40.9087 18.3693C41.511 18.3693 42.0025 18.5597 42.3832 18.9403C42.7638 19.321 42.9542 19.8764 42.9542 20.6065V25H41.4073V20.8452C41.4073 20.4389 41.2994 20.142 41.0835 19.9545C40.8675 19.7642 40.6033 19.669 40.2908 19.669C39.9187 19.669 39.6275 19.7855 39.4173 20.0185C39.2099 20.2486 39.1062 20.5483 39.1062 20.9176V25H37.5934V20.7812C37.5934 20.4432 37.4911 20.1733 37.2866 19.9716C37.0849 19.7699 36.8207 19.669 36.494 19.669C36.2724 19.669 36.0707 19.7259 35.8888 19.8395C35.707 19.9503 35.5621 20.108 35.4542 20.3125C35.3462 20.5142 35.2923 20.75 35.2923 21.0199V25H33.7496ZM47.4169 25.1278C46.7607 25.1278 46.1939 24.9915 45.7166 24.7188C45.2422 24.4432 44.8771 24.054 44.6214 23.5511C44.3658 23.0455 44.2379 22.4503 44.2379 21.7656C44.2379 21.0923 44.3658 20.5014 44.6214 19.9929C44.88 19.4815 45.2408 19.0838 45.7038 18.7997C46.1669 18.5128 46.7109 18.3693 47.3359 18.3693C47.7393 18.3693 48.12 18.4347 48.478 18.5653C48.8388 18.6932 49.157 18.892 49.4325 19.1619C49.7109 19.4318 49.9297 19.7756 50.0888 20.1932C50.2479 20.608 50.3274 21.1023 50.3274 21.6761V22.1491H44.9624V21.1094H48.8487C48.8459 20.8139 48.782 20.5511 48.657 20.321C48.532 20.0881 48.3572 19.9048 48.1328 19.7713C47.9112 19.6378 47.6527 19.571 47.3572 19.571C47.0419 19.571 46.7649 19.6477 46.5263 19.8011C46.2876 19.9517 46.1016 20.1506 45.968 20.3977C45.8374 20.642 45.7706 20.9105 45.7678 21.2031V22.1108C45.7678 22.4915 45.8374 22.8182 45.9766 23.0909C46.1158 23.3608 46.3104 23.5682 46.5604 23.7131C46.8104 23.8551 47.103 23.9261 47.4382 23.9261C47.6626 23.9261 47.8658 23.8949 48.0476 23.8324C48.2294 23.767 48.3871 23.6719 48.5206 23.5469C48.6541 23.4219 48.755 23.267 48.8232 23.0824L50.2635 23.2443C50.1726 23.625 49.9993 23.9574 49.7436 24.2415C49.4908 24.5227 49.1669 24.7415 48.772 24.8977C48.3771 25.0511 47.9254 25.1278 47.4169 25.1278Z" fill="black"/>
<g clip-path="url(#clip0_631_1264)">
<path d="M57.1089 59.1748H58.1274V57.9687L58.544 57.5281L59.5856 59.1632H60.847L59.2268 56.7975L60.6619 55.2667H59.4003L58.1158 56.7627V55.2667H57.0973V59.1748H57.1089ZM52.6185 56.1481H53.093C53.7875 56.1481 54.1693 56.496 54.1693 57.2034C54.1693 57.9803 53.8684 58.2819 53.093 58.3051H52.6185V56.1481ZM51.6 59.1748H53.2782C54.4587 59.1748 55.1878 58.4906 55.1878 57.2034C55.1878 55.9973 54.4703 55.2667 53.2782 55.2667H51.6V59.1748ZM42.9204 59.1748H43.9618L44.2049 58.479H45.559L45.8021 59.1748H46.8551L45.4085 55.2783H44.3784L42.9204 59.1748ZM44.8878 56.3568L45.3275 57.7252H44.448L44.8878 56.3568ZM42.0177 55.2783H38.6846V56.1481H39.8418V59.1748H40.8603V56.1481H42.0177V55.2783ZM33.8354 59.1748H34.877L35.1201 58.479H36.4742L36.717 59.1748H37.7703L36.3121 55.2783H35.282L33.8354 59.1748ZM35.7913 56.3568L36.2311 57.7252H35.3516L35.7913 56.3568ZM29.7385 56.1481H30.2131C30.9075 56.1481 31.2893 56.496 31.2893 57.2034C31.2893 57.9803 30.9884 58.2819 30.2131 58.3051H29.7385V56.1481ZM28.7316 59.1748H30.4098C31.5901 59.1748 32.3193 58.4906 32.3193 57.2034C32.3193 55.9973 31.6017 55.2667 30.4098 55.2667H28.7316V59.1748ZM20.237 59.1748H21.186V56.7395H21.1976L22.5516 59.1748H23.5931V55.2783H22.6442V57.6788H22.6326L21.2786 55.2783H20.237V59.1748ZM15.1448 59.1748H18.3043V58.3051H16.1633V57.5629H18.0728V56.7743H16.1633V56.0901H18.2464V55.2783H15.1448V59.1748ZM11.0711 56.0901H11.7539C12.0664 56.0901 12.2979 56.2408 12.2979 56.6003C12.2979 56.9598 12.0664 57.0874 11.7539 57.0874H11.0711V56.0901ZM10.0527 59.1748H11.0711V57.876H11.9044C12.7608 57.876 13.3163 57.5049 13.3163 56.5308C13.3163 55.603 12.6335 55.2783 11.9044 55.2783H10.0527V59.1748Z" fill="#58595B"/>
<path d="M6.24518 59.4531V58.4906C6.85856 58.4094 7.10159 57.818 7.10159 57.2266C7.10159 56.6351 6.85856 56.0437 6.24518 55.9625V55C7.50666 55.0696 8.21261 56.0321 8.21261 57.2266C8.21261 58.421 7.49509 59.3835 6.24518 59.4531ZM5.11102 57.2266C5.11102 56.6351 5.35405 56.0437 5.96743 55.9625V55C4.70596 55.0696 4 56.0321 4 57.2266C4 58.421 4.70596 59.3835 5.96743 59.4531V58.4906C5.35405 58.4094 5.11102 57.818 5.11102 57.2266Z" fill="#EF4123"/>
</g>
<g opacity="0.6">
<mask id="mask0_631_1264" style="mask-type:alpha" maskUnits="userSpaceOnUse" x="4" y="28" width="56" height="24">
<path d="M19.3399 28H14.165V33.3009H9.17492V30.8383H4V52L60 52V34.1774H54.8251V36.5148H49.7426V39.4365H44.6601V45.2383H39.67V34.3861H34.5875V29.4192H29.4125V42.3165H24.4224V37.6H19.3399V28Z" fill="#807B7B"/>
</mask>
<g mask="url(#mask0_631_1264)">
<rect x="2" y="26" width="60" height="28" fill="url(#paint0_linear_631_1264)"/>
<rect x="2" y="26" width="60" height="28" fill="url(#paint1_linear_631_1264)"/>
</g>
</g>
<rect x="0.5" y="0.5" width="63" height="63" stroke="#B3B3B3"/>
<defs>
<linearGradient id="paint0_linear_631_1264" x1="14.3077" y1="27.3023" x2="27.9084" y2="55.943" gradientUnits="userSpaceOnUse">
<stop stop-color="#996E63"/>
<stop offset="0.0961229" stop-color="#8A4F4E"/>
<stop offset="0.336334" stop-color="#BF2E3A"/>
<stop offset="0.567541" stop-color="#C63D35"/>
<stop offset="1" stop-color="#C75848"/>
</linearGradient>
<linearGradient id="paint1_linear_631_1264" x1="43.5385" y1="28.2791" x2="16.6327" y2="56.1872" gradientUnits="userSpaceOnUse">
<stop stop-color="#EB7569" stop-opacity="0.5"/>
<stop offset="1" stop-color="#792173" stop-opacity="0.5"/>
</linearGradient>
<clipPath id="clip0_631_1264">
<rect width="57" height="4.45312" fill="white" transform="translate(4 55)"/>
</clipPath>
</defs>
</svg>
